<svg id="Layer_1" data-name="Layer 1" xmlns="http://www.w3.org/2000/svg" viewBox="0 0 155.61 27.67"><defs><style>.cls-1{fill:#383838;}</style></defs><title>text</title><path class="cls-1" d="M9.7,160.7h9.93v6H2.4v-27.3H9.7Z" transform="translate(-2.4 -139.41)"/><path class="cls-1" d="M34.46,165.81a9.58,9.58,0,0,1-4.06-3.58A9.85,9.85,0,0,1,29,156.9V139.41h7.27v17.16a4.5,4.5,0,0,0,1.18,3.26,4.11,4.11,0,0,0,3.13,1.24,4,4,0,0,0,3.05-1.24,4.58,4.58,0,0,0,1.16-3.26V139.41h7.31V156.9a9.85,9.85,0,0,1-1.44,5.33,9.64,9.64,0,0,1-4.06,3.58,13.66,13.66,0,0,1-6.05,1.27A13.63,13.63,0,0,1,34.46,165.81Z" transform="translate(-2.4 -139.41)"/><path class="cls-1" d="M63.93,166.71v-27.3h4.5L82,153.4l-.18-14H89.1v27.3H84.63l-13.54-14,.15,14Z" transform="translate(-2.4 -139.41)"/><path class="cls-1" d="M117.76,166.71l-1.22-3.94h-8.92l-1.26,3.94H98.58l10.1-27.3h6.76l10.11,27.3Zm-8.26-10h5.16l-2.58-8.22Z" transform="translate(-2.4 -139.41)"/><path class="cls-1" d="M144.66,157.64h-2.33v9.07H135v-27.3h11.32a10.43,10.43,0,0,1,5,1.15,8.08,8.08,0,0,1,3.34,3.21,9.39,9.39,0,0,1,1.18,4.76,8.81,8.81,0,0,1-1.05,4.31,8.5,8.5,0,0,1-3,3.14l6.2,10.73h-8.52Zm-2.33-6h2.55a3.68,3.68,0,0,0,2.51-.84,2.9,2.9,0,0,0,1-2.25,3.26,3.26,0,0,0-.76-2.25,2.56,2.56,0,0,0-2-.85h-3.25Z" transform="translate(-2.4 -139.41)"/></svg>